# xmcd
#
# Track frame offsets:
#	150
#	13912
#	39635
#	120981
#	148983
#	184999
#
# Disc length: 2531 seconds
#
# Revision: 1
# Processed by: cddbd v1.5.2PL0 Copyright (c) Steve Scherf et al.
# Submitted via: audiograbber 1.83.01
#
DISCID=5409e106
DTITLE=Grateful Dead - 73-07-27A Grand Prix Racecourse, Watkins Glen NY
DYEAR=1900
DGENRE=
TTITLE0=Promised Land
TTITLE1=Mexicali Blues
TTITLE2=Bird Song
TTITLE3=Big River
TTITLE4=Tennessee Jed
TTITLE5=Merry-Go-Round Broke Down Tuning
EXTD=
EXTT0=
EXTT1=
EXTT2=
EXTT3=
EXTT4=
EXTT5=
PLAYORDER=
